# xmcd CD database file
#
# Track frame offsets:
#	150
#	19264
#	45325
#	66974
#	87879
#	110399
#	132571
#	149722
#	170574
#	189797
#	210648
#	229373
#	248690
#	271860
#	295748
#	312532
#
# Disc length: 4489 seconds
#
# Revision: 3
# Processed by: cddbd v1.5.2PL0 Copyright (c) Steve Scherf et al.
# Submitted via: CDex 1.70beta2
#
DISCID=ec118710
DTITLE=Sowelu - Sowelu THE BEST 2002-2009  <Disk1>
DYEAR=2009
DGENRE=Pop
TTITLE0=across my heart
TTITLE1=beautiful dreamer
TTITLE2=Part of me
TTITLE3=Rainbow (original mix)
TTITLE4=breath  ~想いの容量~
TTITLE5=Fortune
TTITLE6=Glisten
TTITLE7=No Limit
TTITLE8=I Will
TTITLE9=Last Forever
TTITLE10=Do You Remember That?
TTITLE11=Let's go far away
TTITLE12=Get Over
TTITLE13=to YOU
TTITLE14=Dear friend
TTITLE15=幸せのちから 
EXTD=YEAR: 2009
EXTT0=
EXTT1=
EXTT2=
EXTT3=
EXTT4=
EXTT5=
EXTT6=
EXTT7=
EXTT8=
EXTT9=
EXTT10=
EXTT11=
EXTT12=
EXTT13=
EXTT14=
EXTT15=
PLAYORDER=
